<svg xmlns="http://www.w3.org/2000/svg" width="200" height="200" fill="none" viewBox="0 0 200 200">
<!-- SVG created with Arrow, by QuiverAI (https://quiver.ai) -->
  <path d="m11.09 171.5v6.36h10.32v3.33h-10.32v8.29h-3.61v-21.24h15.4v3.26h-11.79z" fill="#001426"/>
  <path d="m25.58 166.8h3.7v22.65h-3.7v-22.65z" fill="#001426"/>
  <path d="m48.74 173.1v16.39h-3.33v-1.97c-1.26 1.47-3.09 2.22-5.15 2.22-4.3 0-6.71-2.3-6.71-7.1v-9.54h3.69v9.1c0 3.12 1.38 4.5 3.87 4.5 2.73 0 4.67-1.72 4.67-5.16v-8.44h2.96z" fill="#001426"/>
  <path d="m48.17 194.7 1.08-2.79c0.54 0.44 1.33 0.67 2.23 0.67 1.45 0 2.23-0.94 2.23-2.87v-16.64h3.4v16.53c0 3.71-2.01 5.94-5.49 5.94-1.32 0-2.61-0.28-3.45-0.84zm4.89-26.09c0-1.52 1.01-2.4 2.52-2.4 1.5 0 2.54 0.97 2.54 2.32 0 1.45-1.04 2.45-2.54 2.45-1.51 0-2.52-1.06-2.52-2.37z" fill="#001426"/>
  <path d="m59.69 181.3c0-5.43 3.59-8.61 8.56-8.61 5.07 0 8.5 3.35 8.5 8.41 0 5.25-3.57 8.6-8.5 8.6-4.97 0-8.56-3.49-8.56-8.4zm13.43-0.14c0-3.41-2.11-5.46-4.87-5.46s-4.86 2.05-4.86 5.37c0 3.33 2.13 5.59 4.86 5.59s4.87-2.18 4.87-5.5z" fill="#001426"/>
  <path d="m102.9 186.2v3.26h-15.4v-21.24h15.06v3.26h-11.45v5.63h9.96v2.95h-9.96v6.14h11.79z" fill="#001426"/>
  <path d="m104.4 181.2c0-5.14 3.46-8.49 8.61-8.49 3.13 0 5.68 1.38 6.97 4.15l-2.79 1.61c-1.11-1.87-2.67-2.67-4.4-2.67-2.85 0-5.01 2.05-5.01 5.37 0 3.42 2.21 5.42 5.01 5.42 1.73 0 3.29-0.8 4.4-2.68l2.59 1.61c-1.32 2.62-3.75 4.17-6.77 4.17-5.12 0-8.61-3.46-8.61-8.49z" fill="#001426"/>
  <path d="m122.2 166.8h3.7v22.65h-3.7v-22.65z" fill="#001426"/>
  <path d="m144.9 182.4h-12.25c0.51 2.62 2.56 4.28 5.55 4.28 1.64 0 3.09-0.55 4.29-1.8l1.96 2.4c-1.45 1.61-3.66 2.39-6.25 2.39-5.47 0-8.76-3.49-8.76-8.4 0-5.15 3.43-8.58 8.06-8.58 4.71 0 7.86 3.29 7.86 8.52 0 0.37-0.09 0.9-0.09 1.19zm-12.34-2.52h9.51c-0.37-2.56-2.21-4.35-4.71-4.35-2.46 0-4.32 1.71-4.8 4.35z" fill="#001426"/>
  <path d="m146.9 187.8 1.32-2.77c1.42 1.05 3.76 1.81 5.95 1.81 2.56 0 3.62-0.76 3.62-2.04 0-3.32-10.16-0.51-10.16-7.41 0-3.03 2.62-4.86 7.03-4.86 2.13 0 4.56 0.57 6.01 1.51l-1.56 2.89c-1.57-1.02-3.29-1.36-4.85-1.36-2.38 0-3.58 0.88-3.58 2.02 0 3.55 10.19 0.7 10.19 7.21 0 3-2.65 4.88-7.17 4.88-2.69 0-5.37-0.85-6.8-1.88z" fill="#001426"/>
  <path d="m162.4 168.6c0-1.52 1.08-2.4 2.51-2.4s2.54 0.97 2.54 2.32c0 1.45-1.06 2.45-2.54 2.45s-2.51-1.06-2.51-2.37zm0.5 4.46h3.7v16.39h-3.7v-16.39z" fill="#001426"/>
  <path d="m184.4 179.7v9.74h-3.46v-2.14c-0.98 1.52-2.73 2.34-5.22 2.34-3.81 0-6.13-2.14-6.13-5 0-3.1 2.1-4.97 7.01-4.97h4.11v-0.31c0-2.5-1.37-3.78-4.11-3.78-1.84 0-3.73 0.62-4.99 1.73l-1.4-2.71c1.73-1.37 4.29-2.06 6.88-2.06 4.9 0 7.31 2.25 7.31 7.16zm-3.69 4.77v-1.97h-4.02c-2.73 0-3.48 1.06-3.48 2.29 0 1.45 1.18 2.36 3.31 2.36 1.98 0 3.54-0.91 4.19-2.68z" fill="#001426"/>
  <path d="m188.7 166.8h3.3v22.65h-3.3v-22.65z" fill="#001426"/>
  <path d="m99.24 4.64c-40.98 0-74.21 32.92-74.21 74.77 0 40.41 32.12 73.04 73.68 73.04 40.97 0 74.6-33.06 74.6-73.33 0-41.07-33.09-74.48-74.07-74.48zm-0.53 6.92c37.2 0 67.89 30.69 67.89 67.02 0 5.93-0.98 11.67-2.38 17.17 0.35-10.79-6.49-22.35-19.41-25.14l6.24 6.5-0.57 2.59c-4.6-4.89-9.57-6.48-16.08-5.88-9.09 0.85-13.46 8.38-14.51 13.88 4.72-6.93 10.89-6.59 14.8-5.36 6.22 2.08 9.37 6.88 8.92 13.47-0.52 5.53-4.2 10.17-9.89 11.9 3.26-2.7 4.49-5.96 3.2-10.48-1.4-4.27-6.28-7.32-11.09-6.72-2.34 0.31-4.18 1.25-5.38 2.7 3.38-1.02 6.5 0.62 6.64 4.59-0.14 5.02-5.21 9.17-15.95 5.81-3.2-1.09-6.63-2.46-9.95-5.02 6.36 10.02 15.72 18.46 31.91 18.46 11.11 0 20.68-4.89 27.83-12.83-7.15 14.07-14.85 17.7-27.83 17.7-13.94 0-24.39-7.2-31.54-16.63-9.71-12.73-18.83-19.58-31.53-19.58-12.4 0-20.75 5.45-27.45 13.65 7.49-5.24 14.85-5.58 19.87-5.01 10.56 1.38 21.2 7.97 23.87 22.84-6.84-11.01-15.88-19.05-30.11-18.48-7.5 0.34-13.06 4.27-16.97 8.74-3.8-8.34-5.93-16.97-5.93-27.44 0-37.22 29.37-68.45 65.4-68.45z" fill="url(#paint0_linear_451_274)"/>
  <path d="m129.7 44.27h-21.2v-21.66h-17.3v21.66h-22.51v17.62h22.51v27.54l5.43 4.52v-37.85h-22.51v-5.89h22.51v-21.89h6.02v21.89h22.51v5.89h-22.51v39.51l5.68 2.16v-35.68h22.74v-17.82h-1.37z" fill="url(#paint1_linear_451_274)"/>
  <path d="m120 87.7c3.8-6.59 10.64-7.16 15.43-5.5 6.22 2.22 9.37 7.02 8.91 13.61-0.51 6-5.4 11.7-10.8 12.3 3.69-2.39 4.6-7.07 3.4-10.88-1.57-4.59-7.26-8.01-13.2-5.79-1.56 0.57-2.61 1.2-3.6 2.17 4.78-2.45 7.79 1.17 7.51 4.42-0.42 5.49-5.61 9.08-16.98 6.35-2.22-0.6-4.71-1.77-7.24-3.66 6.11 7.39 12.65 8.36 18.47 7.53 6.84-1.14 11.03-6.24 10.02-11.53-0.98-4.45-6.19-7.61-11.92-9.02z" fill="url(#paint2_linear_451_274)"/>
  <path d="m144.7 74.81c-7.14-3.63-19.52-1.13-23.95 7.87 5.14-6.49 12.38-6.89 18.43-5.57 8.01 1.93 13.51 8.31 13.05 19.81 0.87-1.65 1.41-3.2 2.16-5.08 3.15 6.44-0.84 17.24-10.6 22.96 8.1-2.84 13.06-9.51 13.4-17.17 0.46-9.62-3.41-18.65-12.49-22.82z" fill="url(#paint3_linear_451_274)"/>
  <path d="m41.73 98.94c7.15-5.79 15.38-7.92 22.42-7.52 11.31 0.59 19.56 6.29 30.31 18.74 9.55 11.3 19.35 18.95 33.28 18.95 10.07 0 20.54-6.39 26.9-14-6.33 5.9-13.48 7.61-21.54 7.61-12.76 0-24.93-7.3-32.08-17.6-9.14-12.39-19.23-19.41-30.9-19.41-11.14 0-19.94 4.74-28.39 13.23z" fill="url(#paint4_linear_451_274)"/>
  <path d="m39.16 107.1c5.06-5.1 10.74-8.06 18.56-8.4 10.07-0.43 20.25 4.67 29.57 20.9l2.67-7.2 1.37 5.6 2.48 0.14c6.38 10.16 18.1 16.59 30.31 16.59 5.9 0 11.6-1.77 16.39-3.83-3.45 2.97-7.82 6.6-11.39 7.54-3.8 0.6-6.81 0.35-11.42 0.35-13.82 0-20.35-6.14-23.98-20.68l-0.91 3.11c-10.34-10.02-16.73-16.17-26.89-15.11-7.14 0.71-12.11 0.99-17.44 4.04-3.45 1.92-6.18 3.45-9.32-3.05z" fill="url(#paint5_linear_451_274)"/>
  <path d="m47.91 119.8 2.13 3.33c3.92-2.9 5.77-4.04 10.17-3.95 5.56 0.25 9.04 3.98 11.5 9.56 2.9 6.44 7.3 12.05 13.54 15.07l10.07 1.42c-9.08-2.99-15.19-9.3-20.25-20.6-3.36-7.25-8.94-10.27-14.89-10.04-5.45 0.23-8.7 2.05-12.27 5.21z" fill="#FEFFFE"/>
  <defs>
    <linearGradient id="paint0_linear_451_274" x1="46.06" x2="152.2" y1="133.5" y2="27.33" gradientUnits="userSpaceOnUse">
      <stop stop-color="#7246B6" offset="0"/>
      <stop stop-color="#3F75BA" offset=".49"/>
      <stop stop-color="#54C3C3" offset="1"/>
    </linearGradient>
    <linearGradient id="paint1_linear_451_274" x1="79.13" x2="120.2" y1="93.95" y2="52.91" gradientUnits="userSpaceOnUse">
      <stop stop-color="#5B46A6" offset="0"/>
      <stop stop-color="#49B1C0" offset="1"/>
    </linearGradient>
    <linearGradient id="paint2_linear_451_274" x1="110.3" x2="131.4" y1="104.9" y2="91.31" gradientUnits="userSpaceOnUse">
      <stop stop-color="#2655A4" offset="0"/>
      <stop stop-color="#56B1CC" offset="1"/>
    </linearGradient>
    <linearGradient id="paint3_linear_451_274" x1="125.9" x2="156.9" y1="96.37" y2="75.96" gradientUnits="userSpaceOnUse">
      <stop stop-color="#2B70B6" offset="0"/>
      <stop stop-color="#50C1C1" offset="1"/>
    </linearGradient>
    <linearGradient id="paint4_linear_451_274" x1="56.71" x2="142.4" y1="117.5" y2="83.69" gradientUnits="userSpaceOnUse">
      <stop stop-color="#4064B0" offset="0"/>
      <stop stop-color="#58B7D3" offset="1"/>
    </linearGradient>
    <linearGradient id="paint5_linear_451_274" x1="58.08" x2="130" y1="129.8" y2="102.9" gradientUnits="userSpaceOnUse">
      <stop stop-color="#6C48B5" offset="0"/>
      <stop stop-color="#3D73B9" offset=".51"/>
      <stop stop-color="#3870B7" offset="1"/>
    </linearGradient>
  </defs>
</svg>
